<?xml version="1.0" standalone="no"?><svg xmlns="http://www.w3.org/2000/svg" viewBox="0 0 1440 320"><path fill="#5443c3" fill-opacity="0.8" d="M0,192L17.1,208C34.3,224,69,256,103,256C137.1,256,171,224,206,213.3C240,203,274,213,309,197.3C342.9,181,377,139,411,112C445.7,85,480,75,514,106.7C548.6,139,583,213,617,245.3C651.4,277,686,267,720,245.3C754.3,224,789,192,823,170.7C857.1,149,891,139,926,154.7C960,171,994,213,1029,192C1062.9,171,1097,85,1131,69.3C1165.7,53,1200,107,1234,138.7C1268.6,171,1303,181,1337,181.3C1371.4,181,1406,171,1423,165.3L1440,160L1440,0L1422.9,0C1405.7,0,1371,0,1337,0C1302.9,0,1269,0,1234,0C1200,0,1166,0,1131,0C1097.1,0,1063,0,1029,0C994.3,0,960,0,926,0C891.4,0,857,0,823,0C788.6,0,754,0,720,0C685.7,0,651,0,617,0C582.9,0,549,0,514,0C480,0,446,0,411,0C377.1,0,343,0,309,0C274.3,0,240,0,206,0C171.4,0,137,0,103,0C68.6,0,34,0,17,0L0,0Z"></path></svg>